<svg width="16" height="15" viewBox="0 0 16 15" fill="none" xmlns="http://www.w3.org/2000/svg">
<path fill-rule="evenodd" clip-rule="evenodd" d="M11.5626 0.287354H4.83812C2.64959 0.287354 0.869141 2.06506 0.869141 4.25023V10.9644C0.869141 13.1495 2.64959 14.9272 4.83812 14.9272H11.5627C13.7511 14.9272 15.5315 13.1495 15.5315 10.9644V4.25023C15.5315 2.06506 13.7511 0.287354 11.5626 0.287354ZM8.20034 11.6103C5.98966 11.6103 4.1912 9.81456 4.1912 7.60728C4.1912 5.4 5.98966 3.60431 8.20034 3.60431C10.411 3.60431 12.2095 5.4 12.2095 7.60728C12.2095 9.81456 10.411 11.6103 8.20034 11.6103ZM12.3053 4.54834C11.6521 4.54834 11.1207 4.01779 11.1207 3.36551C11.1207 2.71322 11.6521 2.18256 12.3053 2.18256C12.9586 2.18256 13.4901 2.71322 13.4901 3.36551C13.4901 4.01779 12.9586 4.54834 12.3053 4.54834ZM8.20036 4.46328C6.46376 4.46328 5.05079 5.87397 5.05079 7.608C5.05079 9.34193 6.46376 10.7527 8.20036 10.7527C9.93706 10.7527 11.3499 9.34193 11.3499 7.608C11.3499 5.87397 9.93706 4.46328 8.20036 4.46328ZM11.9803 3.36635C11.9803 3.18751 12.1262 3.04195 12.3054 3.04195C12.4847 3.04195 12.6306 3.1874 12.6306 3.36635C12.6306 3.54529 12.4847 3.69074 12.3054 3.69074C12.1262 3.69074 11.9803 3.54518 11.9803 3.36635Z" fill="white" fill-opacity="0.8"/>
</svg>
