<svg width="19" height="12" viewBox="0 0 19 12" fill="none" xmlns="http://www.w3.org/2000/svg">
<path d="M15.7962 6.65864C15.5072 6.2936 15.5898 6.13119 15.7962 5.80489C15.7999 5.80117 18.1861 2.50389 18.4319 1.38568L18.4334 1.38493C18.5556 0.977429 18.4334 0.677948 17.8427 0.677948H15.8878C15.3902 0.677948 15.1607 0.934966 15.0378 1.22253C15.0378 1.22253 14.0425 3.60497 12.6345 5.14931C12.1801 5.59555 11.97 5.73859 11.7219 5.73859C11.5997 5.73859 11.4098 5.59555 11.4098 5.18805V1.38493C11.4098 0.896227 11.2705 0.677948 10.8585 0.677948H7.78471C7.47256 0.677948 7.28706 0.905911 7.28706 1.11823C7.28706 1.58161 7.99107 1.68814 8.06408 2.99185V5.82053C8.06408 6.44036 7.95158 6.55434 7.70202 6.55434C7.0375 6.55434 5.42462 4.16221 4.46881 1.42442C4.27586 0.893247 4.08738 0.678693 3.58601 0.678693H1.63044C1.07245 0.678693 0.959961 0.93571 0.959961 1.22327C0.959961 1.73135 1.62448 4.25757 4.05013 7.59507C5.66674 9.87322 7.94339 11.1076 10.0144 11.1076C11.2593 11.1076 11.4113 10.8335 11.4113 10.3619C11.4113 8.1851 11.2988 7.97948 11.9223 7.97948C12.2114 7.97948 12.709 8.12252 13.8712 9.22136C15.1995 10.5243 15.4178 11.1076 16.1612 11.1076H18.1161C18.6733 11.1076 18.9557 10.8335 18.7933 10.2926C18.4215 9.15506 15.9094 6.81508 15.7962 6.65864Z" fill="white" fill-opacity="0.8"/>
</svg>
