<svg width="20" height="18" viewBox="0 0 20 18" fill="none" xmlns="http://www.w3.org/2000/svg">
<mask id="path-1-inside-1" fill="white">
<path fill-rule="evenodd" clip-rule="evenodd" d="M6.74 1.00711H13.26C13.7049 1.00711 14.0963 1.30103 14.2203 1.72828L14.9637 4.28856C14.9726 4.31927 14.98 4.34999 14.9859 4.38064H5.01408C5.01998 4.34999 5.02737 4.31927 5.03629 4.28856L5.77966 1.72828C5.90371 1.30103 6.2951 1.00711 6.74 1.00711ZM4.00457 4.38064C4.01643 4.25779 4.03993 4.13376 4.07595 4.00972L4.81932 1.44945C5.06742 0.594945 5.85021 0.0071106 6.74 0.0071106H13.26C14.1498 0.0071106 14.9326 0.594945 15.1807 1.44945L15.9241 4.00972C15.9601 4.13376 15.9836 4.25779 15.9954 4.38064H18.3599C19.2657 4.38064 20 5.11492 20 6.02071C20 6.81363 19.4373 7.47513 18.6894 7.62767L18.6869 7.65799L17.9453 15.6852C17.8502 16.7141 16.987 17.5012 15.9538 17.5012H4.0457C3.01242 17.5012 2.14923 16.7141 2.05418 15.6852L1.3126 7.65799L1.31002 7.62755C0.562428 7.47481 0 6.81344 0 6.02071C0 5.11492 0.734284 4.38064 1.64007 4.38064H4.00457Z"/>
</mask>
<path d="M14.2203 1.72828L15.1807 1.44945V1.44945L14.2203 1.72828ZM14.9637 4.28856L15.9241 4.00973L15.9241 4.00972L14.9637 4.28856ZM14.9859 4.38064V5.38064H16.1969L15.9679 4.19151L14.9859 4.38064ZM5.01408 4.38064L4.03213 4.19151L3.8031 5.38064H5.01408V4.38064ZM5.03629 4.28856L5.99662 4.5674L5.99662 4.56739L5.03629 4.28856ZM5.77966 1.72828L4.81932 1.44945L5.77966 1.72828ZM4.07595 4.00972L5.03628 4.28856V4.28856L4.07595 4.00972ZM4.00457 4.38064V5.38064H4.91265L4.99994 4.47676L4.00457 4.38064ZM4.81932 1.44945L3.85898 1.17061L3.85898 1.17061L4.81932 1.44945ZM15.1807 1.44945L14.2203 1.72828L15.1807 1.44945ZM15.9241 4.00972L16.8844 3.73089V3.73089L15.9241 4.00972ZM15.9954 4.38064L15.0001 4.47676L15.0874 5.38064H15.9954V4.38064ZM18.6894 7.62767L18.4896 6.64784L17.7562 6.79741L17.693 7.54318L18.6894 7.62767ZM18.6869 7.65799L19.6826 7.74998L19.6833 7.74248L18.6869 7.65799ZM17.9453 15.6852L16.9495 15.5932V15.5932L17.9453 15.6852ZM2.05418 15.6852L3.04994 15.5932L2.05418 15.6852ZM1.3126 7.65799L0.316159 7.74257L0.316844 7.74998L1.3126 7.65799ZM1.31002 7.62755L2.30644 7.54297L2.24316 6.79755L1.5102 6.64779L1.31002 7.62755ZM13.26 0.0071106H6.74V2.00711H13.26V0.0071106ZM15.1807 1.44945C14.9326 0.594945 14.1498 0.0071106 13.26 0.0071106V2.00711L13.26 2.00711L15.1807 1.44945ZM15.9241 4.00972L15.1807 1.44945L13.26 2.00711L14.0034 4.56739L15.9241 4.00972ZM15.9679 4.19151C15.9561 4.1306 15.9415 4.06995 15.9241 4.00973L14.0034 4.56738C14.0037 4.5686 14.0039 4.56938 14.004 4.56977L15.9679 4.19151ZM14.9859 3.38064H5.01408V5.38064H14.9859V3.38064ZM4.07595 4.00972C4.05846 4.06995 4.04386 4.1306 4.03213 4.19151L5.99603 4.56976C5.99611 4.56938 5.99627 4.5686 5.99662 4.5674L4.07595 4.00972ZM4.81932 1.44945L4.07595 4.00972L5.99662 4.56739L6.74 2.00711L4.81932 1.44945ZM6.74 0.0071106C5.85021 0.0071106 5.06742 0.594945 4.81932 1.44945L6.74 2.00711V2.00711V0.0071106ZM3.11561 3.73089C3.06226 3.91463 3.02703 4.09983 3.0092 4.28452L4.99994 4.47676C5.00583 4.41574 5.01761 4.35289 5.03628 4.28856L3.11561 3.73089ZM3.85898 1.17061L3.11561 3.73089L5.03628 4.28856L5.77966 1.72828L3.85898 1.17061ZM6.74 -0.992889C5.40531 -0.992889 4.23113 -0.111138 3.85898 1.17061L5.77966 1.72828C5.90371 1.30103 6.2951 1.00711 6.74 1.00711V-0.992889ZM13.26 -0.992889H6.74V1.00711H13.26V-0.992889ZM16.141 1.17061C15.7689 -0.111138 14.5947 -0.992889 13.26 -0.992889V1.00711C13.7049 1.00711 14.0963 1.30103 14.2203 1.72828L16.141 1.17061ZM16.8844 3.73089L16.141 1.17061L14.2203 1.72828L14.9637 4.28856L16.8844 3.73089ZM16.9908 4.28451C16.973 4.09983 16.9377 3.91463 16.8844 3.73089L14.9637 4.28855C14.9824 4.35289 14.9942 4.41575 15.0001 4.47676L16.9908 4.28451ZM18.3599 3.38064H15.9954V5.38064H18.3599V3.38064ZM21 6.02071C21 4.56264 19.818 3.38064 18.3599 3.38064V5.38064C18.7134 5.38064 19 5.6672 19 6.02071H21ZM18.8893 8.60749C20.0935 8.36188 21 7.29827 21 6.02071H19C19 6.32899 18.781 6.58839 18.4896 6.64784L18.8893 8.60749ZM19.6833 7.74248L19.6859 7.71216L17.693 7.54318L17.6904 7.5735L19.6833 7.74248ZM18.941 15.7772L19.6826 7.74998L17.6911 7.566L16.9495 15.5932L18.941 15.7772ZM15.9538 18.5012C17.5037 18.5012 18.7985 17.3205 18.941 15.7772L16.9495 15.5932C16.902 16.1076 16.4704 16.5012 15.9538 16.5012V18.5012ZM4.0457 18.5012H15.9538V16.5012H4.0457V18.5012ZM1.05842 15.7772C1.201 17.3205 2.49578 18.5012 4.0457 18.5012V16.5012C3.52906 16.5012 3.09747 16.1076 3.04994 15.5932L1.05842 15.7772ZM0.316844 7.74998L1.05842 15.7772L3.04994 15.5932L2.30836 7.56599L0.316844 7.74998ZM0.313604 7.71213L0.316187 7.74257L2.30902 7.57341L2.30644 7.54297L0.313604 7.71213ZM-1 6.02071C-1 7.29796 -0.0939873 8.36135 1.10984 8.60731L1.5102 6.64779C1.21884 6.58826 1 6.32892 1 6.02071H-1ZM1.64007 3.38064C0.181999 3.38064 -1 4.56264 -1 6.02071H1C1 5.6672 1.28657 5.38064 1.64007 5.38064V3.38064ZM4.00457 3.38064H1.64007V5.38064H4.00457V3.38064Z" fill="white" fill-opacity="0.6" mask="url(#path-1-inside-1)"/>
</svg>
