<svg width="0" height="0" class="hidden">
  <symbol fill="none" xmlns="http://www.w3.org/2000/svg" viewBox="0 0 20 18" id="basket">
    <mask id="a" fill="#fff">
      <path  d="M6.74 1.007h6.52a1 1 0 01.96.721l.744 2.56c.009.031.016.062.022.093H5.014a.947.947 0 01.022-.092l.744-2.56a1 1 0 01.96-.722zM4.005 4.381c.011-.123.035-.247.07-.371l.744-2.56A2 2 0 016.74.006h6.52a2 2 0 011.92 1.442l.744 2.56c.036.125.06.249.071.372h2.365a1.64 1.64 0 01.33 3.247l-.003.03-.742 8.027a2 2 0 01-1.991 1.816H4.046a2 2 0 01-1.992-1.816l-.741-8.027-.003-.03a1.64 1.64 0 01.33-3.247h2.365z"></path>
    </mask>
    <path d="M14.22 1.728l.96-.279-.96.28zm.744 2.56l.96-.278-.96.279zm.022.093v1h1.21l-.228-1.19-.982.19zm-9.972 0l-.982-.19-.229 1.19h1.211v-1zm.022-.092l.96.278-.96-.278zm.744-2.56l-.96-.28.96.28zm-1.704 2.28l.96.28-.96-.28zm-.071.372v1h.908L5 4.477l-.995-.096zm.814-2.932l-.96-.278.96.278zm10.362 0l-.96.28.96-.28zm.743 2.56l.96-.278-.96.279zm.071.372L15 4.477l.087.904h.908v-1zm2.694 3.247l-.2-.98-.733.15-.063.745.996.085zm-.002.03l.996.092v-.008l-.996-.084zm-.742 8.027l-.995-.092.995.092zm-15.89 0l.995-.092-.996.092zm-.742-8.027l-.997.085v.007l.997-.092zm-.003-.03l.996-.085-.063-.745-.733-.15-.2.98zM13.26.008H6.74v2h6.52v-2zm1.92 1.441A2 2 0 0013.26.007v2l1.92-.558zm.744 2.56l-.743-2.56-1.921.558.743 2.56 1.921-.557zm.044.183a2.08 2.08 0 00-.044-.182l-1.92.557v.003l1.964-.378zm-.982-.811H5.014v2h9.972v-2zm-10.91.629c-.018.06-.032.12-.044.182l1.964.378v-.003l-1.92-.557zm.743-2.56l-.743 2.56 1.92.557.744-2.56-1.92-.558zM6.74.006A2 2 0 004.82 1.45l1.92.558v-2zM3.116 3.731a3.028 3.028 0 00-.107.554L5 4.477a1.03 1.03 0 01.037-.188l-1.92-.558zm.743-2.56l-.743 2.56 1.92.558.744-2.56-1.921-.558zM6.74-.993a3 3 0 00-2.881 2.164l1.92.557a1 1 0 01.961-.72v-2zm6.52 0H6.74v2h6.52v-2zm2.881 2.164A3 3 0 0013.26-.993v2a1 1 0 01.96.721l1.921-.557zm.743 2.56l-.743-2.56-1.92.557.743 2.56 1.92-.557zm.107.554a3.03 3.03 0 00-.107-.554l-1.92.558c.018.064.03.127.036.188l1.99-.192zm1.369-.904h-2.365v2h2.365v-2zM21 6.02a2.64 2.64 0 00-2.64-2.64v2a.64.64 0 01.64.64h2zm-2.11 2.586A2.64 2.64 0 0021 6.021h-2a.64.64 0 01-.51.627l.4 1.96zm.793-.865l.003-.03-1.993-.169-.003.03 1.993.17zm-.742 8.035l.742-8.027-1.992-.184-.741 8.027 1.991.184zM15.954 18.5a3 3 0 002.987-2.724l-1.991-.184a1 1 0 01-.996.908v2zm-11.908 0h11.908v-2H4.046v2zm-2.988-2.724A3 3 0 004.046 18.5v-2a1 1 0 01-.996-.908l-1.992.184zM.317 7.75l.741 8.027 1.992-.184-.742-8.027-1.991.184zm-.003-.038l.002.03 1.993-.169-.003-.03-1.992.17zM-1 6.021a2.64 2.64 0 002.11 2.586l.4-1.96A.64.64 0 011 6.022h-2zm2.64-2.64A2.64 2.64 0 00-1 6.02h2a.64.64 0 01.64-.64v-2zm2.365 0H1.64v2h2.365v-2z" fill="#fff" fill-opacity=".6" mask="url(#a)"></path>
  </symbol>
  <symbol fill="none" xmlns="http://www.w3.org/2000/svg" viewBox="0 0 23 20" id="favorites">
    <path d="M20.25 11.675h0l-.006.009c-1.165 1.526-2.568 2.854-4.022 4.03l-.014.01-.013.012a42.023 42.023 0 01-2.769 2.214c-.51.371-.988.698-1.38.933a5.034 5.034 0 01-.553.29c-.162-.06-.374-.182-.641-.372-.165-.118-.328-.245-.497-.376l-.01-.009a11.991 11.991 0 00-.484-.364c-3.193-2.304-6.488-5.013-8.141-7.904C.363 7.4.446 4.193 2.368 2.266 4.984.048 8.914.506 10.88 2.804l.624.73.605-.745a5.668 5.668 0 011.933-1.531c3.218-1.203 6.455.05 7.769 2.686.915 2.741.142 5.561-1.56 7.731z"  stroke-width="1.6"></path>
  </symbol>
  <symbol fill="none" xmlns="http://www.w3.org/2000/svg" viewBox="0 0 17 17" id="search">
    <circle cx="7.5" cy="7.5" r="7" stroke-opacity=".6"></circle>
    <path  stroke-opacity=".6" d="M12.354 12.646l4 4"></path>
  </symbol>
</svg>