<svg>

	<symbol id="search" viewBox="0 0 21 21" xmlns="http://www.w3.org/2000/svg">
		<g>
      <path d="M17.0625 8.86198C17.0625 13.3143 13.4174 16.9355 8.90625 16.9355C4.39506 16.9355 0.75 13.3143 0.75 8.86198C0.75 4.40968 4.39506 0.788452 8.90625 0.788452C13.4174 0.788452 17.0625 4.40968 17.0625 8.86198Z" stroke-width="1.5"/>
      <line y1="-0.75" x2="6.68639" y2="-0.75" transform="matrix(0.710398 0.7038 -0.710398 0.7038 14.25 15.3326)"  stroke-width="1.5"/>
    </g>
	</symbol>

	<symbol id="favorites" viewBox="0 0 23 20" xmlns="http://www.w3.org/2000/svg">
		<g>
      <path d="M20.2506 11.6755L20.2506 11.6755L20.2442 11.6838C19.0789 13.2104 17.6764 14.5384 16.2221 15.7132L16.2084 15.7243L16.1951 15.736C15.5305 16.3233 14.4434 17.2073 13.4262 17.9496C12.9169 18.3213 12.4379 18.6481 12.0455 18.8826C11.8488 19.0001 11.6861 19.0871 11.5601 19.144C11.534 19.1558 11.5116 19.1653 11.4925 19.173C11.3311 19.1123 11.119 18.9913 10.852 18.8008C10.6871 18.6832 10.5241 18.5562 10.3554 18.4248L10.3447 18.4164C10.1879 18.2942 10.019 18.1626 9.86064 18.052C6.66824 15.748 3.37255 13.0388 1.72001 10.1476C0.363224 7.4002 0.446373 4.19326 2.36752 2.26614C4.98448 0.0483237 8.91417 0.506442 10.8798 2.80436L11.5037 3.53376L12.1087 2.78865C12.6325 2.14371 13.274 1.63422 14.0418 1.25772C17.2603 0.0550975 20.4972 1.30777 21.811 3.94407C22.7256 6.68546 21.9527 9.50511 20.2506 11.6755Z" stroke-width="1.6"/>
    </g>
	</symbol>
  <symbol fill="none" xmlns="http://www.w3.org/2000/svg" viewBox="0 0 23 21" id="basket">
    <path d="M5.19727 6.37456H1.69672C0.696746 6.37456 0.697232 8.37456 2.19713 8.37456C2.19713 8.37456 3.19727 18.8746 3.69727 19.3746C4.19727 19.8746 18.1973 19.8746 19.1973 19.3746C20.1973 18.8746 21 8.49976 21 8.49976C22.9999 7.99971 22 6.37456 21 6.37456H18.1973M5.19727 6.37456C5.19727 6.37456 6.19727 2.87412 6.69727 1.37456C7 1.00015 16 1 16.1973 1.37456C17.1973 3.37459 18.1973 6.37456 18.1973 6.37456M5.19727 6.37456H18.1973"  stroke-width="1.6"/>
  </symbol>

  <symbol fill="none" xmlns="http://www.w3.org/2000/svg" viewBox="0 0 55 55" id="vk">
    <rect y=".366" width="54.634" height="54.634" rx="27.317" fill="#878787"></rect>
    <g clip-path="url(#clip0)">
      <path d="M35.862 30.403c-.486-.615-.347-.888 0-1.438.006-.006 4.017-5.56 4.43-7.443h.002c.206-.687 0-1.192-.993-1.192h-3.285c-.836 0-1.222.433-1.429.918 0 0-1.672 4.012-4.039 6.613-.763.752-1.116.993-1.533.993-.206 0-.525-.241-.525-.928v-6.405c0-.823-.234-1.19-.926-1.19h-5.166c-.525 0-.837.383-.837.74 0 .781 1.183.96 1.306 3.156v4.765c0 1.044-.189 1.236-.608 1.236-1.117 0-3.828-4.03-5.434-8.64-.325-.895-.641-1.256-1.484-1.256h-3.286c-.938 0-1.127.433-1.127.917 0 .856 1.116 5.11 5.193 10.731 2.717 3.837 6.543 5.916 10.024 5.916 2.092 0 2.348-.461 2.348-1.255 0-3.667-.19-4.013.858-4.013.486 0 1.323.24 3.276 2.091 2.232 2.195 2.599 3.177 3.848 3.177h3.286c.936 0 1.41-.461 1.138-1.372-.625-1.916-4.847-5.857-5.037-6.12z" fill="#fff"></path>
    </g>
    <defs>
      <clipPath id="clip0">
        <path fill="#fff" transform="translate(10.928 14.057)" d="M0 0h30.049v30.113H0z"></path>
      </clipPath>
    </defs>
  </symbol>

  <symbol fill="none" xmlns="http://www.w3.org/2000/svg" viewBox="0 0 56 55" id="instagram">
    <circle cx="28.268" cy="27.317" r="27.317" fill="#878787"></circle>
    <path fill-rule="evenodd" clip-rule="evenodd" d="M33.907 15.488H22.632a6.662 6.662 0 00-6.655 6.653v11.27c0 3.668 2.985 6.652 6.655 6.652h11.275c3.67 0 6.655-2.984 6.655-6.652v-11.27a6.662 6.662 0 00-6.655-6.653zm-5.638 19.007a6.728 6.728 0 01-6.722-6.72c0-3.704 3.015-6.719 6.722-6.719 3.707 0 6.723 3.015 6.723 6.72 0 3.705-3.016 6.72-6.723 6.72zm6.883-11.854a1.988 1.988 0 01-1.986-1.985 1.988 1.988 0 013.973-.001 1.988 1.988 0 01-1.987 1.986zm-6.883-.143a5.286 5.286 0 00-5.281 5.28c0 2.91 2.37 5.278 5.281 5.278a5.286 5.286 0 005.281-5.279 5.286 5.286 0 00-5.281-5.279zm6.338-1.841a.545.545 0 111.091.002.545.545 0 01-1.09-.002z" fill="#fff"></path>
  </symbol>

  <symbol fill="none" xmlns="http://www.w3.org/2000/svg" viewBox="0 0 56 55" id="telegram">
    <rect x=".902" y=".366" width="54.634" height="54.634" rx="27.317" fill="#878787"></rect>
    <g clip-path="url(#clip0)">
      <path d="M23.081 30.855l-.441 5.969c.631 0 .905-.26 1.233-.574l2.962-2.72 6.137 4.319c1.126.603 1.919.285 2.222-.995l4.029-18.141v-.001c.358-1.6-.6-2.225-1.697-1.832l-23.68 8.712c-1.615.603-1.591 1.469-.274 1.861l6.054 1.81 14.061-8.456c.662-.421 1.264-.188.769.233L23.08 30.855z" fill="#fff"></path>
    </g>
    <defs>
      <clipPath id="clip0">
        <path fill="#fff" transform="translate(13.195 13.12)" d="M0 0h30.049v30.082H0z"></path>
      </clipPath>
    </defs>
  </symbol>

</svg>