<svg>
	<symbol id="search" viewBox="0 0 21 21" xmlns="http://www.w3.org/2000/svg">
		<g>
      <path d="M17.0625 8.86198C17.0625 13.3143 13.4174 16.9355 8.90625 16.9355C4.39506 16.9355 0.75 13.3143 0.75 8.86198C0.75 4.40968 4.39506 0.788452 8.90625 0.788452C13.4174 0.788452 17.0625 4.40968 17.0625 8.86198Z" stroke-width="1.5"/>
      <line y1="-0.75" x2="6.68639" y2="-0.75" transform="matrix(0.710398 0.7038 -0.710398 0.7038 14.25 15.3326)"  stroke-width="1.5"/>
    </g>
	</symbol>
	<symbol id="favorites" viewBox="0 0 23 20" xmlns="http://www.w3.org/2000/svg">
		<g>
      <path d="M20.2506 11.6755L20.2506 11.6755L20.2442 11.6838C19.0789 13.2104 17.6764 14.5384 16.2221 15.7132L16.2084 15.7243L16.1951 15.736C15.5305 16.3233 14.4434 17.2073 13.4262 17.9496C12.9169 18.3213 12.4379 18.6481 12.0455 18.8826C11.8488 19.0001 11.6861 19.0871 11.5601 19.144C11.534 19.1558 11.5116 19.1653 11.4925 19.173C11.3311 19.1123 11.119 18.9913 10.852 18.8008C10.6871 18.6832 10.5241 18.5562 10.3554 18.4248L10.3447 18.4164C10.1879 18.2942 10.019 18.1626 9.86064 18.052C6.66824 15.748 3.37255 13.0388 1.72001 10.1476C0.363224 7.4002 0.446373 4.19326 2.36752 2.26614C4.98448 0.0483237 8.91417 0.506442 10.8798 2.80436L11.5037 3.53376L12.1087 2.78865C12.6325 2.14371 13.274 1.63422 14.0418 1.25772C17.2603 0.0550975 20.4972 1.30777 21.811 3.94407C22.7256 6.68546 21.9527 9.50511 20.2506 11.6755Z" stroke-width="1.6"/>
    </g>
	</symbol>
	<symbol id="basket" viewBox="0 0 23 20" xmlns="http://www.w3.org/2000/svg">
		<g>
      <!-- <mask id="path-1-inside-1"> -->
      <path fill-rule="evenodd" clip-rule="evenodd" d="M7.52261 1.5H15.4761C15.6983 1.5 15.8938 1.64658 15.9561 1.85982L16.8732 4.99997H6.12554L7.04267 1.85983C7.10495 1.64658 7.30046 1.5 7.52261 1.5ZM4.56387 4.99997C4.56912 4.97975 4.57469 4.95952 4.5806 4.93929L5.60282 1.4393C5.85194 0.586317 6.634 0 7.52261 0H15.4761C16.3648 0 17.1468 0.586316 17.3959 1.4393L18.4182 4.93929C18.4241 4.95952 18.4296 4.97975 18.4349 4.99997H21.125C22.1605 4.99997 23 5.83943 23 6.87497C23 7.78461 22.3522 8.54296 21.4928 8.7139L20.6127 18.185C20.5171 19.2135 19.6541 20 18.6213 20H4.37788C3.34501 20 2.48203 19.2135 2.38646 18.185L1.5063 8.71372C0.647321 8.54244 0 7.7843 0 6.87497C0 5.83943 0.839465 4.99997 1.875 4.99997H4.56387Z"/>
      <!-- </mask> -->
      <!-- <path d="M15.9561 1.85982L14.5162 2.28035V2.28035L15.9561 1.85982ZM16.8732 4.99997V6.49997H18.874L18.3131 4.57944L16.8732 4.99997ZM6.12554 4.99997L4.6857 4.57944L4.12478 6.49997H6.12554V4.99997ZM7.04267 1.85983L5.60282 1.4393V1.4393L7.04267 1.85983ZM4.5806 4.93929L6.02044 5.35983L6.02044 5.35982L4.5806 4.93929ZM4.56387 4.99997V6.49997H5.72443L6.01582 5.37658L4.56387 4.99997ZM5.60282 1.4393L7.04267 1.85983L5.60282 1.4393ZM17.3959 1.4393L18.8358 1.01877V1.01877L17.3959 1.4393ZM18.4182 4.93929L19.858 4.51881L19.858 4.51877L18.4182 4.93929ZM18.4349 4.99997L16.9829 5.37658L17.2743 6.49997H18.4349V4.99997ZM21.4928 8.7139L21.2002 7.24272L20.1028 7.461L19.9993 8.5751L21.4928 8.7139ZM20.6127 18.185L19.1191 18.0462V18.0463L20.6127 18.185ZM2.38646 18.185L3.88003 18.0462L2.38646 18.185ZM1.5063 8.71372L2.99986 8.57493L2.89638 7.46138L1.79963 7.24268L1.5063 8.71372ZM15.4761 0H7.52261V3H15.4761V0ZM17.3959 1.4393C17.1468 0.586316 16.3648 0 15.4761 0V3C15.0318 3 14.6408 2.70684 14.5162 2.28035L17.3959 1.4393ZM18.3131 4.57944L17.3959 1.4393L14.5162 2.28035L15.4334 5.4205L18.3131 4.57944ZM16.8732 3.49997H6.12554V6.49997H16.8732V3.49997ZM5.60282 1.4393L4.6857 4.57944L7.56539 5.4205L8.48251 2.28035L5.60282 1.4393ZM7.52261 0C6.634 0 5.85194 0.586318 5.60282 1.4393L8.48251 2.28035C8.35795 2.70684 7.96693 3 7.52261 3V0ZM3.14075 4.51876C3.13059 4.55357 3.12098 4.58844 3.11192 4.62335L6.01582 5.37658C6.01725 5.37106 6.01879 5.36547 6.02044 5.35983L3.14075 4.51876ZM4.16297 1.01877L3.14075 4.51877L6.02044 5.35982L7.04267 1.85983L4.16297 1.01877ZM7.52261 -1.5C5.96753 -1.5 4.59894 -0.473945 4.16297 1.01877L7.04267 1.85983C7.10495 1.64658 7.30046 1.5 7.52261 1.5V-1.5ZM15.4761 -1.5H7.52261V1.5H15.4761V-1.5ZM18.8358 1.01877C18.3998 -0.473945 17.0312 -1.5 15.4761 -1.5V1.5C15.6983 1.5 15.8938 1.64658 15.9561 1.85983L18.8358 1.01877ZM19.858 4.51877L18.8358 1.01877L15.9561 1.85982L16.9783 5.35982L19.858 4.51877ZM19.8868 4.62336C19.8778 4.5884 19.8682 4.55355 19.858 4.51881L16.9783 5.35978C16.98 5.36549 16.9815 5.37109 16.9829 5.37658L19.8868 4.62336ZM21.125 3.49997H18.4349V6.49997H21.125V3.49997ZM24.5 6.87497C24.5 5.01101 22.989 3.49997 21.125 3.49997V6.49997C21.3321 6.49997 21.5 6.66786 21.5 6.87497H24.5ZM21.7855 10.1851C23.3331 9.87724 24.5 8.51404 24.5 6.87497H21.5C21.5 7.05518 21.3714 7.20867 21.2002 7.24272L21.7855 10.1851ZM22.1062 18.3238L22.9864 8.85269L19.9993 8.5751L19.1191 18.0462L22.1062 18.3238ZM18.6213 21.5C20.4288 21.5 21.939 20.1236 22.1062 18.3238L19.1191 18.0463C19.0952 18.3034 18.8795 18.5 18.6213 18.5V21.5ZM4.37788 21.5H18.6213V18.5H4.37788V21.5ZM0.892896 18.3238C1.06015 20.1236 2.57035 21.5 4.37788 21.5V18.5C4.11966 18.5 3.90392 18.3034 3.88003 18.0462L0.892896 18.3238ZM0.0127321 8.85252L0.892896 18.3238L3.88003 18.0462L2.99986 8.57493L0.0127321 8.85252ZM-1.5 6.87497C-1.5 8.51349 -0.333879 9.87632 1.21296 10.1848L1.79963 7.24268C1.62852 7.20857 1.5 7.05511 1.5 6.87497H-1.5ZM1.875 3.49997C0.0110374 3.49997 -1.5 5.01101 -1.5 6.87497H1.5C1.5 6.66786 1.66789 6.49997 1.875 6.49997V3.49997ZM4.56387 3.49997H1.875V6.49997H4.56387V3.49997Z" /> -->
    </g>
	</symbol>
</svg>