<svg width="20" height="17" viewBox="0 0 20 17" fill="none" xmlns="http://www.w3.org/2000/svg">
<path d="M9.99998 3.13224L9.60133 2.60556C9.25324 2.14569 8.86117 1.75538 8.43229 1.43852L8.43226 1.4385C7.58744 0.814246 6.63425 0.5 5.58701 0.5C4.17276 0.5 2.88363 1.03956 1.94629 2.01083L9.99998 3.13224ZM9.99998 3.13224L10.3987 2.60558M9.99998 3.13224L10.3987 2.60558M10.3987 2.60558C10.7469 2.14556 11.1388 1.75539 11.5676 1.43852C12.4126 0.814243 13.3658 0.5 14.413 0.5C15.8273 0.5 17.1162 1.03956 18.0536 2.01088C18.9805 2.97144 19.5 4.29264 19.5 5.74238C19.5 7.20776 18.9357 8.57514 17.6388 10.0702L17.6388 10.0702C16.4628 11.426 14.7619 12.8128 12.7356 14.4625L12.7356 14.4626L12.7178 14.477C12.0341 15.0338 11.2579 15.666 10.4523 16.339L10.452 16.3392C10.3305 16.4409 10.17 16.5 10 16.5C9.82994 16.5 9.66966 16.441 9.54772 16.339L9.54738 16.3387C8.73578 15.6607 7.95444 15.0245 7.26724 14.4649L7.26487 14.463L7.26484 14.463M10.3987 2.60558L7.26484 14.463M7.26484 14.463C5.23824 12.813 3.53734 11.426 2.36134 10.0703C1.06439 8.5751 0.5 7.20773 0.5 5.74252C0.5 4.29264 1.01952 2.97144 1.94624 2.01088L7.26484 14.463Z" stroke="white" stroke-opacity="0.6"/>
</svg>
