<svg width="22" height="14" viewBox="0 0 22 14" fill="none" xmlns="http://www.w3.org/2000/svg">
<path d="M18.2554 7.94225C17.8998 7.49309 18.0015 7.29325 18.2554 6.89175C18.26 6.88717 21.1961 2.83 21.4986 1.45409L21.5004 1.45317C21.6508 0.951752 21.5004 0.583252 20.7735 0.583252H18.3682C17.7558 0.583252 17.4735 0.899502 17.3223 1.25334C17.3223 1.25334 16.0976 4.18484 14.3651 6.08509C13.8059 6.63417 13.5474 6.81017 13.2422 6.81017C13.0918 6.81017 12.8581 6.63417 12.8581 6.13275V1.45317C12.8581 0.851835 12.6867 0.583252 12.1798 0.583252H8.39758C8.0135 0.583252 7.78525 0.863752 7.78525 1.125C7.78525 1.69517 8.6515 1.82625 8.74133 3.43042V6.911C8.74133 7.67367 8.60292 7.81392 8.29583 7.81392C7.47817 7.81392 5.49358 4.8705 4.3175 1.50175C4.08008 0.848169 3.84817 0.584169 3.23125 0.584169H0.825C0.138417 0.584169 0 0.900419 0 1.25425C0 1.87942 0.817666 4.98784 3.80233 9.0945C5.7915 11.8977 8.59283 13.4166 11.1412 13.4166C12.6729 13.4166 12.8599 13.0793 12.8599 12.499C12.8599 9.82051 12.7215 9.5675 13.4888 9.5675C13.8444 9.5675 14.4568 9.74351 15.8868 11.0956C17.5212 12.6988 17.7898 13.4166 18.7046 13.4166H21.1099C21.7956 13.4166 22.143 13.0793 21.9432 12.4138C21.4858 11.014 18.3948 8.13475 18.2554 7.94225Z" fill="#C28686"/>
</svg>
