<svg width="23" height="20" viewBox="0 0 23 20" fill="none" xmlns="http://www.w3.org/2000/svg">
<path d="M20.2506 11.6755L20.2506 11.6755L20.2442 11.6838C19.0789 13.2104 17.6764 14.5384 16.2221 15.7132L16.2084 15.7243L16.1951 15.736C15.5305 16.3233 14.4434 17.2073 13.4262 17.9496C12.9169 18.3213 12.4379 18.6481 12.0455 18.8826C11.8488 19.0001 11.6861 19.0871 11.5601 19.144C11.534 19.1558 11.5116 19.1653 11.4925 19.173C11.3311 19.1123 11.119 18.9913 10.852 18.8008C10.6871 18.6832 10.5241 18.5562 10.3554 18.4248L10.3447 18.4164C10.1879 18.2942 10.019 18.1626 9.86064 18.052C6.66824 15.748 3.37255 13.0388 1.72001 10.1476C0.363224 7.4002 0.446373 4.19326 2.36752 2.26614C4.98448 0.0483238 8.91417 0.506442 10.8798 2.80436L11.5037 3.53376L12.1087 2.78865C12.6325 2.14371 13.274 1.63422 14.0418 1.25773C17.2603 0.0550965 20.4972 1.30777 21.811 3.94407C22.7256 6.68547 21.9527 9.50511 20.2506 11.6755Z" stroke="white" stroke-width="1.6"/>
</svg>
