<svg width="21" height="13" viewBox="0 0 21 13" fill="none" xmlns="http://www.w3.org/2000/svg">
<path d="M10.5001 12C14.4891 12 17.9581 9.776 19.7351 6.5C18.8343 4.8361 17.5006 3.44658 15.8749 2.47842C14.2493 1.51026 12.3922 0.999442 10.5001 1C8.60804 0.999442 6.75097 1.51026 5.12533 2.47842C3.4997 3.44658 2.16595 4.8361 1.26514 6.5C2.16595 8.1639 3.4997 9.55342 5.12533 10.5216C6.75097 11.4897 8.60804 12.0006 10.5001 12ZM10.5001 6.42059e-07C12.6635 -0.000722144 14.7833 0.608816 16.6159 1.7586C18.4484 2.90838 19.9195 4.55177 20.8601 6.5C19.9195 8.44823 18.4484 10.0916 16.6159 11.2414C14.7833 12.3912 12.6635 13.0007 10.5001 13C8.33673 13.0007 6.21699 12.3912 4.38441 11.2414C2.55183 10.0916 1.08075 8.44823 0.140137 6.5C1.08075 4.55177 2.55183 2.90838 4.38441 1.7586C6.21699 0.608816 8.33673 -0.000722144 10.5001 6.42059e-07ZM10.5001 2C11.6936 2 12.8382 2.47411 13.6821 3.31802C14.526 4.16193 15.0001 5.30653 15.0001 6.5C15.0001 7.69347 14.526 8.83807 13.6821 9.68198C12.8382 10.5259 11.6936 11 10.5001 11C9.30666 11 8.16207 10.5259 7.31816 9.68198C6.47424 8.83807 6.00014 7.69347 6.00014 6.5C6.00014 5.30653 6.47424 4.16193 7.31816 3.31802C8.16207 2.47411 9.30666 2 10.5001 2ZM10.5001 3C9.57188 3 8.68164 3.36875 8.02526 4.02513C7.36889 4.6815 7.00014 5.57174 7.00014 6.5C7.00014 7.42826 7.36889 8.3185 8.02526 8.97487C8.68164 9.63125 9.57188 10 10.5001 10C11.4284 10 12.3186 9.63125 12.975 8.97487C13.6314 8.3185 14.0001 7.42826 14.0001 6.5C14.0001 5.57174 13.6314 4.6815 12.975 4.02513C12.3186 3.36875 11.4284 3 10.5001 3Z" fill="#C9C9C9"/>
</svg>
