<svg width="24" height="24" viewBox="0 0 24 24" fill="none" xmlns="http://www.w3.org/2000/svg">
<path fill-rule="evenodd" clip-rule="evenodd" d="M12 24C18.6274 24 24 18.6274 24 12C24 11.6518 23.9852 11.307 23.9561 10.9664L11.2355 22.7422V23.976C11.4883 23.9919 11.7432 24 12 24ZM11.2355 20.8344V13.2364L20.9531 4.00975C22.2749 5.48972 23.2351 7.29945 23.6951 9.30021L11.2355 20.8344ZM19.9612 3.02102L11.2355 11.3059V0.0239564C11.4883 0.00806531 11.7432 0 12 0C15.0547 0 17.8429 1.14142 19.9612 3.02102ZM9.43555 17.5118L9.43555 8.44155L4.1173 2.95195C2.38782 4.45994 1.09472 6.45569 0.452408 8.72479L9.43555 17.5118ZM9.43555 19.4701V23.7254C4.04031 22.5508 0 17.7473 0 12C0 11.4404 0.0382992 10.8898 0.112419 10.3506L9.43555 19.4701ZM9.43555 0.274633V6.4295L5.23129 2.0898C6.4827 1.23343 7.90458 0.607922 9.43555 0.274633Z" fill="white"/>
</svg>
