<svg width="24" height="24" viewBox="0 0 24 24" fill="none" xmlns="http://www.w3.org/2000/svg">
<path fill-rule="evenodd" clip-rule="evenodd" d="M12.2355 23.9977C18.7542 23.8722 24 18.5487 24 12C24 11.9507 23.9997 11.9014 23.9991 11.8523L12.2355 22.7422V23.9977ZM12.2355 20.8344V13.2364L21.3977 4.53713C22.6502 6.11226 23.5151 8.00947 23.8479 10.0844L12.2355 20.8344ZM12.2355 0.0022583C15.4449 0.0640457 18.3457 1.38575 20.4638 3.4933L12.2355 11.3059V0.0022583ZM10.4355 17.5117L10.4355 8.44153L4.67439 2.49476C2.86756 3.88932 1.46939 5.78758 0.690191 7.97921L10.4355 17.5117ZM10.4355 19.4701V23.8989C4.54732 23.1323 0 18.0972 0 12C0 11.1479 0.0888205 10.3165 0.257709 9.51457L10.4355 19.4701ZM10.4355 0.101048V6.42949L5.84841 1.69456C7.2231 0.872203 8.77607 0.317107 10.4355 0.101048Z" fill="url(#paint0_linear)" fill-opacity="0.9"/>
<defs>
<linearGradient id="paint0_linear" x1="6.78261" y1="1.56522" x2="16.1739" y2="22.9565" gradientUnits="userSpaceOnUse">
<stop stop-color="#5C9357"/>
<stop offset="1" stop-color="#2D5929"/>
</linearGradient>
</defs>
</svg>
