<svg width="193" height="27" viewBox="0 0 193 27" fill="none" xmlns="http://www.w3.org/2000/svg">
<path d="M1.19287 10.7109L2.34131 0.59375H13.4976V3.88867H5.58154L5.08936 8.16797C6.02816 7.66667 7.0262 7.41602 8.0835 7.41602C9.97933 7.41602 11.465 8.00391 12.5405 9.17969C13.616 10.3555 14.1538 12.0007 14.1538 14.1152C14.1538 15.4004 13.8804 16.5534 13.3335 17.5742C12.7957 18.5859 12.021 19.3743 11.0093 19.9395C9.99756 20.4954 8.80355 20.7734 7.42725 20.7734C6.22412 20.7734 5.10758 20.5319 4.07764 20.0488C3.04769 19.5566 2.23193 18.8685 1.63037 17.9844C1.03792 17.1003 0.72347 16.0931 0.687012 14.9629H4.59717C4.6792 15.7923 4.96631 16.4395 5.4585 16.9043C5.9598 17.36 6.61149 17.5879 7.41357 17.5879C8.3068 17.5879 8.99495 17.2689 9.47803 16.6309C9.9611 15.9837 10.2026 15.0723 10.2026 13.8965C10.2026 12.7663 9.92464 11.9004 9.36865 11.2988C8.81266 10.6973 8.02425 10.3965 7.00342 10.3965C6.06462 10.3965 5.30355 10.6426 4.72021 11.1348L4.3374 11.4902L1.19287 10.7109ZM24.4761 13.2129H21.2085V20.5H17.1069V0.59375H24.5034C26.855 0.59375 28.6688 1.11784 29.9448 2.16602C31.2209 3.21419 31.8589 4.69531 31.8589 6.60938C31.8589 7.96745 31.5627 9.10221 30.9702 10.0137C30.3869 10.916 29.4982 11.6361 28.3042 12.1738L32.6108 20.3086V20.5H28.2085L24.4761 13.2129ZM21.2085 9.89062H24.5171C25.547 9.89062 26.3446 9.63086 26.9097 9.11133C27.4748 8.58268 27.7573 7.85807 27.7573 6.9375C27.7573 5.9987 27.4884 5.26042 26.9507 4.72266C26.422 4.1849 25.6063 3.91602 24.5034 3.91602H21.2085V9.89062ZM34.9351 18.5586C34.9351 17.9297 35.1447 17.4193 35.564 17.0273C35.9924 16.6354 36.5256 16.4395 37.1636 16.4395C37.8107 16.4395 38.3439 16.6354 38.7632 17.0273C39.1916 17.4193 39.4058 17.9297 39.4058 18.5586C39.4058 19.1784 39.1961 19.6842 38.7769 20.0762C38.3576 20.459 37.8198 20.6504 37.1636 20.6504C36.5164 20.6504 35.9832 20.459 35.564 20.0762C35.1447 19.6842 34.9351 19.1784 34.9351 18.5586Z" fill="#E3BC58"/>
<path d="M51.2632 14.0332C51.4455 15.4733 51.8784 16.4987 52.562 17.1094C53.2547 17.7201 54.271 18.0254 55.6108 18.0254C57.0327 18.0254 58.131 17.5059 58.9058 16.4668C59.6896 15.4277 60.1089 13.9284 60.1636 11.9688H53.1362V9.17969H60.1636C60.0907 7.21094 59.6486 5.70703 58.8374 4.66797C58.0353 3.62891 56.9051 3.10938 55.4468 3.10938C54.1707 3.10938 53.1909 3.42839 52.5073 4.06641C51.8328 4.70443 51.4136 5.74349 51.2495 7.18359H47.8042C48.0229 5.01432 48.7977 3.32812 50.1284 2.125C51.4683 0.921875 53.241 0.320312 55.4468 0.320312C57.0783 0.320312 58.5138 0.703125 59.7534 1.46875C60.993 2.23438 61.9455 3.32812 62.6108 4.75C63.2853 6.17188 63.6271 7.81706 63.6362 9.68555V11.3672C63.6362 13.2539 63.3081 14.9128 62.6519 16.3438C62.0047 17.7656 61.0705 18.8594 59.8491 19.625C58.6278 20.3906 57.215 20.7734 55.6108 20.7734C53.3504 20.7734 51.5366 20.181 50.1694 18.9961C48.8022 17.8021 48.0184 16.1478 47.8179 14.0332H51.2632ZM72.8511 11.9688H70.4995V20.5H67.0542V0.59375H70.4995V8.96094H72.3999L78.2515 0.59375H82.4897L75.6538 10.123L83.0913 20.5H78.9351L72.8511 11.9688ZM100.455 11.0664C100.455 13.0169 100.117 14.7305 99.4429 16.207C98.7684 17.6745 97.8022 18.8047 96.5444 19.5977C95.2957 20.3815 93.8556 20.7734 92.2241 20.7734C90.6108 20.7734 89.1707 20.3815 87.9038 19.5977C86.646 18.8047 85.6707 17.679 84.978 16.2207C84.2944 14.7624 83.9481 13.0807 83.939 11.1758V10.0547C83.939 8.11328 84.2808 6.39974 84.9644 4.91406C85.6571 3.42839 86.6278 2.29362 87.8765 1.50977C89.1343 0.716797 90.5744 0.320312 92.1968 0.320312C93.8192 0.320312 95.2547 0.71224 96.5034 1.49609C97.7612 2.27083 98.7319 3.39193 99.4155 4.85938C100.099 6.31771 100.445 8.01758 100.455 9.95898V11.0664ZM96.9956 10.0273C96.9956 7.82161 96.5763 6.13086 95.7378 4.95508C94.9084 3.7793 93.728 3.19141 92.1968 3.19141C90.702 3.19141 89.5308 3.7793 88.6831 4.95508C87.8446 6.12174 87.4162 7.77604 87.3979 9.91797V11.0664C87.3979 13.2539 87.8218 14.9447 88.6694 16.1387C89.5262 17.3327 90.7111 17.9297 92.2241 17.9297C93.7554 17.9297 94.9312 17.3464 95.7515 16.1797C96.5809 15.013 96.9956 13.3086 96.9956 11.0664V10.0273ZM116.123 20.5H112.8V8.38672H107.031V20.5H103.708V5.70703H116.123V20.5ZM119.035 12.9668C119.035 11.5176 119.322 10.2142 119.896 9.05664C120.47 7.88997 121.277 6.99674 122.316 6.37695C123.355 5.74805 124.549 5.43359 125.898 5.43359C127.894 5.43359 129.512 6.07617 130.751 7.36133C132 8.64648 132.675 10.3509 132.775 12.4746L132.789 13.2539C132.789 14.7122 132.506 16.0156 131.941 17.1641C131.385 18.3125 130.583 19.2012 129.535 19.8301C128.496 20.459 127.292 20.7734 125.925 20.7734C123.838 20.7734 122.166 20.0807 120.908 18.6953C119.659 17.3008 119.035 15.446 119.035 13.1309V12.9668ZM122.357 13.2539C122.357 14.776 122.671 15.9701 123.3 16.8359C123.929 17.6927 124.804 18.1211 125.925 18.1211C127.046 18.1211 127.917 17.6836 128.537 16.8086C129.166 15.9336 129.48 14.653 129.48 12.9668C129.48 11.472 129.156 10.2871 128.509 9.41211C127.871 8.53711 127.001 8.09961 125.898 8.09961C124.813 8.09961 123.952 8.53255 123.314 9.39844C122.676 10.2552 122.357 11.5404 122.357 13.2539ZM148.552 13.2539C148.552 15.5417 148.033 17.3691 146.994 18.7363C145.955 20.0944 144.56 20.7734 142.81 20.7734C141.188 20.7734 139.889 20.2402 138.914 19.1738V26.1875H135.591V5.70703H138.654L138.791 7.21094C139.766 6.02604 141.092 5.43359 142.769 5.43359C144.574 5.43359 145.986 6.10807 147.007 7.45703C148.037 8.79688 148.552 10.6608 148.552 13.0488V13.2539ZM145.244 12.9668C145.244 11.4902 144.947 10.319 144.355 9.45312C143.772 8.58724 142.933 8.1543 141.839 8.1543C140.481 8.1543 139.506 8.71484 138.914 9.83594V16.3984C139.515 17.5469 140.5 18.1211 141.867 18.1211C142.924 18.1211 143.749 17.6973 144.341 16.8496C144.943 15.9928 145.244 14.6986 145.244 12.9668ZM162.443 8.3457H157.644V20.5H154.322V8.3457H149.578V5.70703H162.443V8.3457ZM173.285 20.5C173.139 20.2174 173.011 19.7572 172.902 19.1191C171.845 20.222 170.55 20.7734 169.019 20.7734C167.533 20.7734 166.321 20.3496 165.382 19.502C164.444 18.6543 163.974 17.6061 163.974 16.3574C163.974 14.7806 164.557 13.5729 165.724 12.7344C166.9 11.8867 168.577 11.4629 170.755 11.4629H172.792V10.4922C172.792 9.72656 172.578 9.11589 172.15 8.66016C171.722 8.19531 171.07 7.96289 170.195 7.96289C169.438 7.96289 168.819 8.1543 168.335 8.53711C167.852 8.91081 167.611 9.38932 167.611 9.97266H164.289C164.289 9.16146 164.557 8.40495 165.095 7.70312C165.633 6.99219 166.362 6.4362 167.283 6.03516C168.212 5.63411 169.247 5.43359 170.386 5.43359C172.118 5.43359 173.499 5.87109 174.529 6.74609C175.559 7.61198 176.087 8.83333 176.115 10.4102V17.082C176.115 18.4128 176.302 19.4746 176.675 20.2676V20.5H173.285ZM169.634 18.1074C170.291 18.1074 170.906 17.9479 171.48 17.6289C172.063 17.3099 172.501 16.8815 172.792 16.3438V13.5547H171.001C169.771 13.5547 168.846 13.7689 168.226 14.1973C167.606 14.6257 167.296 15.2318 167.296 16.0156C167.296 16.6536 167.506 17.1641 167.925 17.5469C168.354 17.9206 168.923 18.1074 169.634 18.1074ZM192.166 5.70703V20.5H188.843V8.38672H184.66L184.386 13.541C184.213 16.0202 183.735 17.8021 182.951 18.8867C182.176 19.9622 180.986 20.5 179.382 20.5H178.357L178.343 17.7383L179.027 17.6699C179.756 17.5697 180.285 17.1276 180.613 16.3438C180.95 15.5508 181.164 14.1107 181.255 12.0234L181.529 5.70703H192.166Z" fill="#FFF5DD"/>
</svg>
