<svg width="16" height="16" viewBox="0 0 16 16" fill="none" xmlns="http://www.w3.org/2000/svg">
<path d="M10.5428 11.657L10.2529 11.3668L9.91162 11.5945C8.94885 12.2369 7.79835 12.6163 6.5529 12.6163C3.2067 12.6163 0.5 9.89634 0.5 6.55817C0.5 3.22051 3.2189 0.5 6.5529 0.5C9.8869 0.5 12.6058 3.22051 12.6058 6.55817C12.6058 7.80485 12.2265 8.95648 11.5847 9.92015L11.3568 10.2622L11.6483 10.5519L15.4205 14.3014C15.5314 14.4209 15.5201 14.5962 15.4247 14.6918L14.6969 15.4202C14.578 15.5313 14.4032 15.5203 14.3075 15.4248C14.3075 15.4247 14.3075 15.4247 14.3074 15.4247L10.5428 11.657ZM11.036 6.55817C11.036 4.08349 9.02657 2.07183 6.5529 2.07183C4.07923 2.07183 2.06977 4.08349 2.06977 6.55817C2.06977 9.03285 4.07923 11.0445 6.5529 11.0445C9.02657 11.0445 11.036 9.03285 11.036 6.55817Z" fill="#3F3F3F" stroke="#7A7A7A"/>
</svg>
