<svg width="192" height="27" viewBox="0 0 192 27" fill="none" xmlns="http://www.w3.org/2000/svg">
<path d="M0.941406 10.7109L2.08984 0.59375H13.2461V3.88867H5.33008L4.83789 8.16797C5.77669 7.66667 6.77474 7.41602 7.83203 7.41602C9.72786 7.41602 11.2135 8.00391 12.2891 9.17969C13.3646 10.3555 13.9023 12.0007 13.9023 14.1152C13.9023 15.4004 13.6289 16.5534 13.082 17.5742C12.5443 18.5859 11.7695 19.3743 10.7578 19.9395C9.74609 20.4954 8.55208 20.7734 7.17578 20.7734C5.97266 20.7734 4.85612 20.5319 3.82617 20.0488C2.79622 19.5566 1.98047 18.8685 1.37891 17.9844C0.786458 17.1003 0.472005 16.0931 0.435547 14.9629H4.3457C4.42773 15.7923 4.71484 16.4395 5.20703 16.9043C5.70833 17.36 6.36003 17.5879 7.16211 17.5879C8.05534 17.5879 8.74349 17.2689 9.22656 16.6309C9.70964 15.9837 9.95117 15.0723 9.95117 13.8965C9.95117 12.7663 9.67318 11.9004 9.11719 11.2988C8.5612 10.6973 7.77279 10.3965 6.75195 10.3965C5.81315 10.3965 5.05208 10.6426 4.46875 11.1348L4.08594 11.4902L0.941406 10.7109ZM24.2246 13.2129H20.957V20.5H16.8555V0.59375H24.252C26.6035 0.59375 28.4173 1.11784 29.6934 2.16602C30.9694 3.21419 31.6074 4.69531 31.6074 6.60938C31.6074 7.96745 31.3112 9.10221 30.7188 10.0137C30.1354 10.916 29.2467 11.6361 28.0527 12.1738L32.3594 20.3086V20.5H27.957L24.2246 13.2129ZM20.957 9.89062H24.2656C25.2956 9.89062 26.0931 9.63086 26.6582 9.11133C27.2233 8.58268 27.5059 7.85807 27.5059 6.9375C27.5059 5.9987 27.237 5.26042 26.6992 4.72266C26.1706 4.1849 25.3548 3.91602 24.252 3.91602H20.957V9.89062ZM34.6836 18.5586C34.6836 17.9297 34.8932 17.4193 35.3125 17.0273C35.7409 16.6354 36.2741 16.4395 36.9121 16.4395C37.5592 16.4395 38.0924 16.6354 38.5117 17.0273C38.9401 17.4193 39.1543 17.9297 39.1543 18.5586C39.1543 19.1784 38.9447 19.6842 38.5254 20.0762C38.1061 20.459 37.5684 20.6504 36.9121 20.6504C36.265 20.6504 35.7318 20.459 35.3125 20.0762C34.8932 19.6842 34.6836 19.1784 34.6836 18.5586Z" fill="#387932"/>
<path d="M51.0527 13.8828C51.1712 15.168 51.5495 16.0931 52.1875 16.6582C52.8255 17.2142 53.7507 17.4922 54.9629 17.4922C56.3027 17.4922 57.2962 17.0501 57.9434 16.166C58.5905 15.2728 58.9642 13.9557 59.0645 12.2148H52.7754V8.89258H59.0508C58.9414 7.11523 58.5404 5.79818 57.8477 4.94141C57.1641 4.07552 56.1842 3.64258 54.9082 3.64258C53.6686 3.64258 52.7389 3.9388 52.1191 4.53125C51.4993 5.11458 51.1393 6.05794 51.0391 7.36133H46.9375C47.138 5.18294 47.931 3.46484 49.3164 2.20703C50.7109 0.949219 52.5749 0.320312 54.9082 0.320312C56.5671 0.320312 58.0208 0.71224 59.2695 1.49609C60.5273 2.27083 61.4935 3.38737 62.168 4.8457C62.8424 6.29492 63.1797 7.98568 63.1797 9.91797V11.2168C63.1797 14.1517 62.446 16.4805 60.9785 18.2031C59.5202 19.9167 57.515 20.7734 54.9629 20.7734C52.6113 20.7734 50.7246 20.1536 49.3027 18.9141C47.89 17.6654 47.1061 15.9883 46.9512 13.8828H51.0527ZM72.5723 12.3652H70.207V20.5H66.1055V0.59375H70.207V8.56445H72.0801L76.9473 0.59375H81.9512L75.8125 10.0137L82.5938 20.5H77.6992L72.5723 12.3652ZM100.094 10.998C100.094 12.9577 99.7474 14.6758 99.0547 16.1523C98.362 17.6289 97.3685 18.7682 96.0742 19.5703C94.7891 20.3724 93.3125 20.7734 91.6445 20.7734C89.9948 20.7734 88.5228 20.377 87.2285 19.584C85.9342 18.791 84.9316 17.6608 84.2207 16.1934C83.5098 14.7168 83.1497 13.0215 83.1406 11.1074V10.123C83.1406 8.16341 83.4915 6.44076 84.1934 4.95508C84.9043 3.46029 85.9023 2.31641 87.1875 1.52344C88.4818 0.721354 89.9583 0.320312 91.6172 0.320312C93.276 0.320312 94.748 0.721354 96.0332 1.52344C97.3275 2.31641 98.3255 3.46029 99.0273 4.95508C99.7383 6.44076 100.094 8.15885 100.094 10.1094V10.998ZM95.9375 10.0957C95.9375 8.00846 95.5638 6.42253 94.8164 5.33789C94.069 4.25326 93.0026 3.71094 91.6172 3.71094C90.2409 3.71094 89.179 4.2487 88.4316 5.32422C87.6842 6.39062 87.306 7.95833 87.2969 10.0273V10.998C87.2969 13.0306 87.6706 14.6074 88.418 15.7285C89.1654 16.8496 90.2409 17.4102 91.6445 17.4102C93.0208 17.4102 94.0781 16.8724 94.8164 15.7969C95.5547 14.7122 95.9284 13.1354 95.9375 11.0664V10.0957ZM115.68 20.5H111.715V8.90625H106.766V20.5H102.814V5.70703H115.68V20.5ZM118.086 12.9668C118.086 11.4993 118.368 10.1914 118.934 9.04297C119.499 7.89453 120.31 7.00586 121.367 6.37695C122.434 5.74805 123.669 5.43359 125.072 5.43359C127.068 5.43359 128.695 6.04427 129.953 7.26562C131.22 8.48698 131.926 10.1458 132.072 12.2422L132.1 13.2539C132.1 15.5234 131.466 17.3464 130.199 18.7227C128.932 20.0898 127.232 20.7734 125.1 20.7734C122.967 20.7734 121.262 20.0898 119.986 18.7227C118.719 17.3555 118.086 15.4961 118.086 13.1445V12.9668ZM122.037 13.2539C122.037 14.6576 122.301 15.7331 122.83 16.4805C123.359 17.2188 124.115 17.5879 125.1 17.5879C126.057 17.5879 126.804 17.2233 127.342 16.4941C127.88 15.7559 128.148 14.5801 128.148 12.9668C128.148 11.5905 127.88 10.5241 127.342 9.76758C126.804 9.01107 126.048 8.63281 125.072 8.63281C124.106 8.63281 123.359 9.01107 122.83 9.76758C122.301 10.515 122.037 11.6771 122.037 13.2539ZM147.85 13.2402C147.85 15.5189 147.33 17.3464 146.291 18.7227C145.261 20.0898 143.867 20.7734 142.107 20.7734C140.613 20.7734 139.405 20.2539 138.484 19.2148V26.1875H134.533V5.70703H138.197L138.334 7.15625C139.291 6.00781 140.54 5.43359 142.08 5.43359C143.903 5.43359 145.32 6.10807 146.332 7.45703C147.344 8.80599 147.85 10.6654 147.85 13.0352V13.2402ZM143.898 12.9531C143.898 11.5768 143.652 10.515 143.16 9.76758C142.677 9.02018 141.971 8.64648 141.041 8.64648C139.801 8.64648 138.949 9.12044 138.484 10.0684V16.125C138.967 17.1003 139.829 17.5879 141.068 17.5879C142.955 17.5879 143.898 16.043 143.898 12.9531ZM162.014 8.87891H157.27V20.5H153.305V8.87891H148.643V5.70703H162.014V8.87891ZM172.363 20.5C172.181 20.1445 172.049 19.7025 171.967 19.1738C171.01 20.2402 169.766 20.7734 168.234 20.7734C166.785 20.7734 165.582 20.3542 164.625 19.5156C163.677 18.6771 163.203 17.6198 163.203 16.3438C163.203 14.776 163.782 13.5729 164.939 12.7344C166.106 11.8958 167.788 11.472 169.984 11.4629H171.803V10.6152C171.803 9.93164 171.625 9.38477 171.27 8.97461C170.923 8.56445 170.372 8.35938 169.615 8.35938C168.95 8.35938 168.426 8.51888 168.043 8.83789C167.669 9.1569 167.482 9.5944 167.482 10.1504H163.531C163.531 9.29362 163.796 8.50065 164.324 7.77148C164.853 7.04232 165.6 6.47266 166.566 6.0625C167.533 5.64323 168.617 5.43359 169.82 5.43359C171.643 5.43359 173.088 5.89388 174.154 6.81445C175.23 7.72591 175.768 9.01107 175.768 10.6699V17.082C175.777 18.4857 175.973 19.5475 176.355 20.2676V20.5H172.363ZM169.096 17.752C169.679 17.752 170.217 17.6243 170.709 17.3691C171.201 17.1048 171.566 16.7539 171.803 16.3164V13.7734H170.326C168.348 13.7734 167.296 14.457 167.168 15.8242L167.154 16.0566C167.154 16.5488 167.327 16.9544 167.674 17.2734C168.02 17.5924 168.494 17.752 169.096 17.752ZM191.668 5.70703V20.5H187.717V8.90625H184.23L183.984 13.4727C183.829 15.9062 183.351 17.679 182.549 18.791C181.747 19.903 180.553 20.4727 178.967 20.5H177.627L177.586 17.2871L178.078 17.2461C178.789 17.1914 179.309 16.7721 179.637 15.9883C179.965 15.2044 180.17 13.8691 180.252 11.9824L180.525 5.70703H191.668Z" fill="#A2D59E"/>
</svg>
