<svg width="18" height="19" viewBox="0 0 18 19" fill="none" xmlns="http://www.w3.org/2000/svg">
<path fill-rule="evenodd" clip-rule="evenodd" d="M13.1275 0.41333H4.87243C2.18573 0.41333 0 2.59268 0 5.27155V13.5027C0 16.1815 2.18573 18.3608 4.87243 18.3608H13.1277C15.8142 18.3608 18 16.1815 18 13.5027V5.27155C18 2.59268 15.8142 0.41333 13.1275 0.41333ZM8.99998 14.2944C6.28609 14.2944 4.07825 12.093 4.07825 9.38707C4.07825 6.68109 6.28609 4.47969 8.99998 4.47969C11.7139 4.47969 13.9217 6.68109 13.9217 9.38707C13.9217 12.093 11.7139 14.2944 8.99998 14.2944ZM14.0394 5.63701C13.2374 5.63701 12.5851 4.9866 12.5851 4.18694C12.5851 3.38728 13.2374 2.73673 14.0394 2.73673C14.8414 2.73673 15.4939 3.38728 15.4939 4.18694C15.4939 4.9866 14.8414 5.63701 14.0394 5.63701ZM8.99998 5.53274C6.86809 5.53274 5.13349 7.26214 5.13349 9.38796C5.13349 11.5136 6.86809 13.2432 8.99998 13.2432C11.132 13.2432 12.8665 11.5136 12.8665 9.38796C12.8665 7.26214 11.132 5.53274 8.99998 5.53274ZM13.6403 4.18798C13.6403 3.96874 13.8194 3.79029 14.0394 3.79029C14.2596 3.79029 14.4386 3.96861 14.4386 4.18798C14.4386 4.40735 14.2596 4.58567 14.0394 4.58567C13.8194 4.58567 13.6403 4.40721 13.6403 4.18798Z" fill="#C28686"/>
</svg>
