<?xml version="1.0" ?><svg data-name="Capa 1" id="Capa_1" viewBox="0 0 20 19.84" xmlns="http://www.w3.org/2000/svg"><path d="M7.38,11.64a4.68,4.68,0,0,0,1,.1,6.1,6.1,0,0,0,4-1.48,10.21,10.21,0,0,0,2.92-4.65l.83,1.78a.36.36,0,0,0,.33.22.29.29,0,0,0,.16,0,.36.36,0,0,0,.18-.49L15.69,4.63a.38.38,0,0,0-.49-.19l-2.72,1.2a.39.39,0,0,0-.19.5.37.37,0,0,0,.49.19l1.77-.78a9.63,9.63,0,0,1-2.63,4.14,5.3,5.3,0,0,1-4.36,1.22.38.38,0,1,0-.18.73Z"/><path d="M16.76,15.2h-9A4.18,4.18,0,0,1,3.61,11V4.27a.37.37,0,0,0-.37-.38.38.38,0,0,0-.38.38V11A4.93,4.93,0,0,0,7.79,16h9a.38.38,0,1,0,0-.75Z"/></svg>